<?xml version="1.0" encoding="UTF-8"?><svg xmlns="http://www.w3.org/2000/svg" viewBox="0 0 302.05 302.05"><g isolation="isolate"><g id="Layer_1"><path d="M144.82,68.07h-33.77c-6.79,0-13.12,3.65-16.52,9.54L2.55,236.91c-3.4,5.88-3.4,13.19,0,19.08l16.89,29.24c3.4,5.88,9.73,9.54,16.52,9.54h183.95c6.79,0,13.12-3.65,16.52-9.54l16.89-29.24c3.4-5.88,3.4-13.19,0-19.08l-91.97-159.3c-3.4-5.88-9.73-9.54-16.52-9.54h0Z" fill="#001909"/><path d="M204.06,7.29c-37.9,0-68.73,30.83-68.73,68.73s30.83,68.73,68.73,68.73,68.73-30.83,68.73-68.73S241.96,7.29,204.06,7.29h0Z" fill="#001909"/><path d="M186.51,135.2c5.56,1.65,11.45,2.55,17.55,2.55,34.09,0,61.73-27.64,61.73-61.73s-27.64-61.73-61.73-61.73-61.19,27.13-61.7,60.78h-31.31c-4.31,0-8.3,2.3-10.46,6.04L8.61,240.41c-2.16,3.74-2.16,8.34,0,12.08l16.89,29.24c2.16,3.74,6.14,6.04,10.46,6.04h183.94c4.31,0,8.3-2.3,10.46-6.04l16.89-29.24c2.16-3.74,2.16-8.34,0-12.08l-60.74-105.21Z" fill="#ffbf00"/><polygon points="186.37 232.03 69.49 232.03 127.93 130.8 186.37 232.03" fill="#fff"/><g mix-blend-mode="darken" opacity=".29"><path d="M127.93,130.8l58.44,101.22h-116.88l58.44-101.22M127.93,126.8l-1.73,3-58.44,101.22-1.73,3h123.81l-1.73-3-58.44-101.22-1.73-3h0Z" fill="#001909"/></g></g></g></svg>